<svg width="16" height="17" viewBox="0 0 16 17" fill="#3d4751" xmlns="http://www.w3.org/2000/svg"><path d="M15.9983 15.3415C15.9506 15.6505 15.8028 15.9346 15.5783 16.149C15.0115 16.6486 14.2828 16.6127 13.7227 16.0549C12.5757 14.8949 11.4309 13.7332 10.2883 12.5697C10.2534 12.5302 10.2234 12.4866 10.1989 12.4397C9.77043 12.6672 9.39595 12.9016 8.99617 13.0693C8.17024 13.4374 7.2761 13.6216 6.37403 13.6095C5.47197 13.5974 4.58294 13.3893 3.76691 12.9992C2.50246 12.4222 1.46036 11.4391 0.80141 10.2017C0.188482 9.09385 -0.0829752 7.82505 0.022081 6.55913C0.127281 5.00693 0.78702 3.54693 1.87762 2.45283C2.89664 1.38284 4.25357 0.709525 5.71185 0.550249C7.02157 0.382884 8.35008 0.635982 9.51066 1.27398C10.4898 1.80287 11.3169 2.58047 11.9111 3.53073C12.5352 4.50576 12.8851 5.63508 12.9232 6.79695C12.9789 8.04992 12.6698 9.29181 12.0342 10.3677C12.0153 10.3895 12.0012 10.4151 11.9928 10.4428C11.9844 10.4705 11.9818 10.4997 11.9853 10.5284C11.9889 10.5572 11.9983 10.5849 12.0131 10.6097C12.028 10.6345 12.0478 10.6558 12.0713 10.6723C13.1829 11.7912 14.2878 12.9205 15.4012 14.0377C15.6829 14.3217 15.9275 14.6212 16 15.0301L15.9983 15.3415ZM10.8416 7.05017C10.8371 5.87333 10.3731 4.74622 9.55106 3.91567C8.72904 3.08511 7.61604 2.61878 6.45576 2.61879C5.30161 2.62552 4.1966 3.09343 3.38033 3.92104C2.56405 4.74866 2.10231 5.86928 2.09523 7.03991C2.09478 8.21447 2.55356 9.34128 3.37098 10.1733C4.1884 11.0052 5.29774 11.4745 6.45576 11.4781C7.61545 11.4781 8.72795 11.0123 9.54987 10.1825C10.3718 9.35264 10.8362 8.22642 10.8416 7.05017Z"></path></svg>